<mxfile host="app.diagrams.net" agent="Mozilla/5.0 (Windows NT 10.0; Win64; x64) AppleWebKit/537.36 (KHTML, like Gecko) Chrome/128.0.0.0 Safari/537.36" version="24.7.13">
  <diagram name="Page-1" id="Dd77_izJ0grPyTvXM6vd">
    <mxGraphModel dx="1191" dy="678" grid="1" gridSize="10" guides="1" tooltips="1" connect="1" arrows="1" fold="1" page="1" pageScale="1" pageWidth="850" pageHeight="1100" math="0" shadow="0">
      <root>
        <mxCell id="0" />
        <mxCell id="1" parent="0" />
        <mxCell id="_AoNOXCEgxPc9-VJnQbq-77" value="" style="edgeStyle=orthogonalEdgeStyle;rounded=0;orthogonalLoop=1;jettySize=auto;html=1;" edge="1" parent="1" source="_AoNOXCEgxPc9-VJnQbq-57" target="_AoNOXCEgxPc9-VJnQbq-58">
          <mxGeometry relative="1" as="geometry" />
        </mxCell>
        <mxCell id="_AoNOXCEgxPc9-VJnQbq-57" value="mulai" style="ellipse;whiteSpace=wrap;html=1;" vertex="1" parent="1">
          <mxGeometry x="305" y="30" width="120" height="80" as="geometry" />
        </mxCell>
        <mxCell id="_AoNOXCEgxPc9-VJnQbq-78" value="" style="edgeStyle=orthogonalEdgeStyle;rounded=0;orthogonalLoop=1;jettySize=auto;html=1;" edge="1" parent="1" source="_AoNOXCEgxPc9-VJnQbq-58" target="_AoNOXCEgxPc9-VJnQbq-59">
          <mxGeometry relative="1" as="geometry" />
        </mxCell>
        <mxCell id="_AoNOXCEgxPc9-VJnQbq-87" value="" style="edgeStyle=orthogonalEdgeStyle;rounded=0;orthogonalLoop=1;jettySize=auto;html=1;" edge="1" parent="1" source="_AoNOXCEgxPc9-VJnQbq-58" target="_AoNOXCEgxPc9-VJnQbq-59">
          <mxGeometry relative="1" as="geometry" />
        </mxCell>
        <mxCell id="_AoNOXCEgxPc9-VJnQbq-58" value="total" style="shape=parallelogram;perimeter=parallelogramPerimeter;whiteSpace=wrap;html=1;fixedSize=1;" vertex="1" parent="1">
          <mxGeometry x="305" y="150" width="120" height="60" as="geometry" />
        </mxCell>
        <mxCell id="_AoNOXCEgxPc9-VJnQbq-64" value="" style="edgeStyle=orthogonalEdgeStyle;rounded=0;orthogonalLoop=1;jettySize=auto;html=1;" edge="1" parent="1" source="_AoNOXCEgxPc9-VJnQbq-59" target="_AoNOXCEgxPc9-VJnQbq-61">
          <mxGeometry relative="1" as="geometry" />
        </mxCell>
        <mxCell id="_AoNOXCEgxPc9-VJnQbq-65" value="true" style="edgeLabel;html=1;align=center;verticalAlign=middle;resizable=0;points=[];" vertex="1" connectable="0" parent="_AoNOXCEgxPc9-VJnQbq-64">
          <mxGeometry x="-0.3606" relative="1" as="geometry">
            <mxPoint as="offset" />
          </mxGeometry>
        </mxCell>
        <mxCell id="_AoNOXCEgxPc9-VJnQbq-69" value="" style="edgeStyle=orthogonalEdgeStyle;rounded=0;orthogonalLoop=1;jettySize=auto;html=1;" edge="1" parent="1" source="_AoNOXCEgxPc9-VJnQbq-59" target="_AoNOXCEgxPc9-VJnQbq-63">
          <mxGeometry relative="1" as="geometry" />
        </mxCell>
        <mxCell id="_AoNOXCEgxPc9-VJnQbq-90" value="false" style="edgeLabel;html=1;align=center;verticalAlign=middle;resizable=0;points=[];" vertex="1" connectable="0" parent="_AoNOXCEgxPc9-VJnQbq-69">
          <mxGeometry x="-0.2854" y="3" relative="1" as="geometry">
            <mxPoint as="offset" />
          </mxGeometry>
        </mxCell>
        <mxCell id="_AoNOXCEgxPc9-VJnQbq-59" value="&lt;div&gt;&lt;span style=&quot;font-size: 12px;&quot;&gt;&lt;br&gt;&lt;/span&gt;&lt;/div&gt;&lt;span style=&quot;font-size: 12px;&quot;&gt;if total &amp;gt;=100.000 AND &amp;lt;=300.000&amp;nbsp;&lt;/span&gt;" style="rhombus;whiteSpace=wrap;html=1;" vertex="1" parent="1">
          <mxGeometry x="300" y="252.5" width="130" height="110" as="geometry" />
        </mxCell>
        <mxCell id="_AoNOXCEgxPc9-VJnQbq-84" value="" style="edgeStyle=orthogonalEdgeStyle;rounded=0;orthogonalLoop=1;jettySize=auto;html=1;" edge="1" parent="1" source="_AoNOXCEgxPc9-VJnQbq-61" target="_AoNOXCEgxPc9-VJnQbq-74">
          <mxGeometry relative="1" as="geometry" />
        </mxCell>
        <mxCell id="_AoNOXCEgxPc9-VJnQbq-61" value="&lt;span style=&quot;font-size: 12px;&quot;&gt;print ( selamat mendapat diskon 10% )&lt;/span&gt;" style="shape=parallelogram;perimeter=parallelogramPerimeter;whiteSpace=wrap;html=1;fixedSize=1;" vertex="1" parent="1">
          <mxGeometry x="490" y="275" width="160" height="65" as="geometry" />
        </mxCell>
        <mxCell id="_AoNOXCEgxPc9-VJnQbq-67" value="" style="edgeStyle=orthogonalEdgeStyle;rounded=0;orthogonalLoop=1;jettySize=auto;html=1;" edge="1" parent="1" source="_AoNOXCEgxPc9-VJnQbq-63" target="_AoNOXCEgxPc9-VJnQbq-66">
          <mxGeometry relative="1" as="geometry" />
        </mxCell>
        <mxCell id="_AoNOXCEgxPc9-VJnQbq-68" value="true" style="edgeLabel;html=1;align=center;verticalAlign=middle;resizable=0;points=[];" vertex="1" connectable="0" parent="_AoNOXCEgxPc9-VJnQbq-67">
          <mxGeometry x="0.0342" y="-3" relative="1" as="geometry">
            <mxPoint as="offset" />
          </mxGeometry>
        </mxCell>
        <mxCell id="_AoNOXCEgxPc9-VJnQbq-71" value="false" style="edgeStyle=orthogonalEdgeStyle;rounded=0;orthogonalLoop=1;jettySize=auto;html=1;" edge="1" parent="1" source="_AoNOXCEgxPc9-VJnQbq-63" target="_AoNOXCEgxPc9-VJnQbq-70">
          <mxGeometry relative="1" as="geometry" />
        </mxCell>
        <mxCell id="_AoNOXCEgxPc9-VJnQbq-63" value="&lt;div&gt;&lt;span style=&quot;font-size: 12px;&quot;&gt;&lt;br&gt;&lt;/span&gt;&lt;/div&gt;&lt;span style=&quot;font-size: 12px;&quot;&gt;if total &amp;gt;=300.001 AND &amp;lt;=500.000&amp;nbsp;&lt;/span&gt;" style="rhombus;whiteSpace=wrap;html=1;" vertex="1" parent="1">
          <mxGeometry x="300" y="402.5" width="130" height="110" as="geometry" />
        </mxCell>
        <mxCell id="_AoNOXCEgxPc9-VJnQbq-85" value="" style="edgeStyle=orthogonalEdgeStyle;rounded=0;orthogonalLoop=1;jettySize=auto;html=1;" edge="1" parent="1" source="_AoNOXCEgxPc9-VJnQbq-66" target="_AoNOXCEgxPc9-VJnQbq-82">
          <mxGeometry relative="1" as="geometry" />
        </mxCell>
        <mxCell id="_AoNOXCEgxPc9-VJnQbq-66" value="&lt;span style=&quot;font-size: 12px;&quot;&gt;print ( selamat mendapat diskon 20% )&lt;/span&gt;" style="shape=parallelogram;perimeter=parallelogramPerimeter;whiteSpace=wrap;html=1;fixedSize=1;" vertex="1" parent="1">
          <mxGeometry x="480" y="425" width="160" height="65" as="geometry" />
        </mxCell>
        <mxCell id="_AoNOXCEgxPc9-VJnQbq-75" value="" style="edgeStyle=orthogonalEdgeStyle;rounded=0;orthogonalLoop=1;jettySize=auto;html=1;" edge="1" parent="1" source="_AoNOXCEgxPc9-VJnQbq-70" target="_AoNOXCEgxPc9-VJnQbq-73">
          <mxGeometry relative="1" as="geometry" />
        </mxCell>
        <mxCell id="_AoNOXCEgxPc9-VJnQbq-76" value="true" style="edgeLabel;html=1;align=center;verticalAlign=middle;resizable=0;points=[];" vertex="1" connectable="0" parent="_AoNOXCEgxPc9-VJnQbq-75">
          <mxGeometry x="-0.351" y="-1" relative="1" as="geometry">
            <mxPoint as="offset" />
          </mxGeometry>
        </mxCell>
        <mxCell id="_AoNOXCEgxPc9-VJnQbq-70" value="&lt;div&gt;&lt;span style=&quot;font-size: 12px;&quot;&gt;&lt;br&gt;&lt;/span&gt;&lt;/div&gt;&lt;span style=&quot;font-size: 12px;&quot;&gt;total &amp;lt;500.000&amp;nbsp;&lt;/span&gt;" style="rhombus;whiteSpace=wrap;html=1;" vertex="1" parent="1">
          <mxGeometry x="300" y="550" width="130" height="110" as="geometry" />
        </mxCell>
        <mxCell id="_AoNOXCEgxPc9-VJnQbq-72" value="true" style="edgeLabel;html=1;align=center;verticalAlign=middle;resizable=0;points=[];" vertex="1" connectable="0" parent="1">
          <mxGeometry x="523" y="578" as="geometry" />
        </mxCell>
        <mxCell id="_AoNOXCEgxPc9-VJnQbq-86" value="" style="edgeStyle=orthogonalEdgeStyle;rounded=0;orthogonalLoop=1;jettySize=auto;html=1;" edge="1" parent="1" source="_AoNOXCEgxPc9-VJnQbq-73" target="_AoNOXCEgxPc9-VJnQbq-83">
          <mxGeometry relative="1" as="geometry" />
        </mxCell>
        <mxCell id="_AoNOXCEgxPc9-VJnQbq-73" value="&lt;span style=&quot;font-size: 12px;&quot;&gt;print ( selamat mendapat diskon 25% )&lt;/span&gt;" style="shape=parallelogram;perimeter=parallelogramPerimeter;whiteSpace=wrap;html=1;fixedSize=1;" vertex="1" parent="1">
          <mxGeometry x="470" y="572.5" width="160" height="65" as="geometry" />
        </mxCell>
        <mxCell id="_AoNOXCEgxPc9-VJnQbq-74" value="total =total - (total*0,1)" style="shape=parallelogram;perimeter=parallelogramPerimeter;whiteSpace=wrap;html=1;fixedSize=1;" vertex="1" parent="1">
          <mxGeometry x="710" y="277.5" width="120" height="60" as="geometry" />
        </mxCell>
        <mxCell id="_AoNOXCEgxPc9-VJnQbq-82" value="total =total - (total*0,2)" style="shape=parallelogram;perimeter=parallelogramPerimeter;whiteSpace=wrap;html=1;fixedSize=1;" vertex="1" parent="1">
          <mxGeometry x="690" y="427.5" width="120" height="60" as="geometry" />
        </mxCell>
        <mxCell id="_AoNOXCEgxPc9-VJnQbq-83" value="total =total - (total*0,25)" style="shape=parallelogram;perimeter=parallelogramPerimeter;whiteSpace=wrap;html=1;fixedSize=1;" vertex="1" parent="1">
          <mxGeometry x="680" y="575" width="120" height="60" as="geometry" />
        </mxCell>
        <mxCell id="_AoNOXCEgxPc9-VJnQbq-94" value="" style="endArrow=classic;html=1;rounded=0;" edge="1" parent="1" target="_AoNOXCEgxPc9-VJnQbq-74">
          <mxGeometry width="50" height="50" relative="1" as="geometry">
            <mxPoint x="880" y="730" as="sourcePoint" />
            <mxPoint x="850" y="300" as="targetPoint" />
            <Array as="points">
              <mxPoint x="880" y="470" />
              <mxPoint x="880" y="310" />
            </Array>
          </mxGeometry>
        </mxCell>
        <mxCell id="_AoNOXCEgxPc9-VJnQbq-96" value="" style="endArrow=none;html=1;rounded=0;exitX=1;exitY=0.5;exitDx=0;exitDy=0;" edge="1" parent="1" source="_AoNOXCEgxPc9-VJnQbq-82">
          <mxGeometry width="50" height="50" relative="1" as="geometry">
            <mxPoint x="810" y="490" as="sourcePoint" />
            <mxPoint x="880" y="458" as="targetPoint" />
          </mxGeometry>
        </mxCell>
        <mxCell id="_AoNOXCEgxPc9-VJnQbq-97" value="" style="endArrow=none;html=1;rounded=0;exitX=1;exitY=0.5;exitDx=0;exitDy=0;" edge="1" parent="1" source="_AoNOXCEgxPc9-VJnQbq-83">
          <mxGeometry width="50" height="50" relative="1" as="geometry">
            <mxPoint x="790" y="650" as="sourcePoint" />
            <mxPoint x="880" y="605" as="targetPoint" />
          </mxGeometry>
        </mxCell>
        <mxCell id="_AoNOXCEgxPc9-VJnQbq-100" value="" style="edgeStyle=orthogonalEdgeStyle;rounded=0;orthogonalLoop=1;jettySize=auto;html=1;" edge="1" parent="1" source="_AoNOXCEgxPc9-VJnQbq-98" target="_AoNOXCEgxPc9-VJnQbq-99">
          <mxGeometry relative="1" as="geometry" />
        </mxCell>
        <mxCell id="_AoNOXCEgxPc9-VJnQbq-98" value="prin ( total)" style="shape=parallelogram;perimeter=parallelogramPerimeter;whiteSpace=wrap;html=1;fixedSize=1;" vertex="1" parent="1">
          <mxGeometry x="820" y="730" width="120" height="60" as="geometry" />
        </mxCell>
        <mxCell id="_AoNOXCEgxPc9-VJnQbq-99" value="selesai" style="ellipse;whiteSpace=wrap;html=1;aspect=fixed;" vertex="1" parent="1">
          <mxGeometry x="840" y="850" width="80" height="80" as="geometry" />
        </mxCell>
      </root>
    </mxGraphModel>
  </diagram>
</mxfile>
